<svg width="169" height="78" viewBox="0 0 169 78" fill="none" xmlns="http://www.w3.org/2000/svg">
<circle cx="110" cy="25" r="25" fill="black"/>
<circle cx="105.13" cy="19.4805" r="12.987" fill="white"/>
<path d="M107.232 19.0352C107.812 19.2695 108.258 19.6211 108.57 20.0898C108.883 20.5521 109.039 21.6589 109.039 23.4102C109.039 24.6862 108.915 25.627 108.668 26.2324C108.421 26.8379 107.939 27.3359 107.223 27.7266C106.507 28.1107 105.546 28.3027 104.342 28.3027C103.17 28.3027 102.242 28.1172 101.559 27.7461C100.875 27.375 100.383 26.8835 100.084 26.2715C99.791 25.6595 99.6445 24.6406 99.6445 23.2148C99.6445 22.2578 99.7161 21.4277 99.8594 20.7246C100.009 20.0215 100.471 19.4583 101.246 19.0352C100.758 18.8008 100.39 18.4297 100.143 17.9219C99.9017 17.4076 99.7812 16.7565 99.7812 15.9688C99.7812 14.6081 100.159 13.5892 100.914 12.9121C101.669 12.2285 102.799 11.8867 104.303 11.8867C106.041 11.8867 107.242 12.248 107.906 12.9707C108.57 13.6934 108.902 14.7253 108.902 16.0664C108.902 16.9193 108.792 17.5345 108.57 17.9121C108.355 18.2897 107.91 18.6641 107.232 19.0352ZM105.016 15.6367C105.016 15.1029 104.967 14.7513 104.869 14.582C104.778 14.4062 104.599 14.3184 104.332 14.3184C104.072 14.3184 103.896 14.4128 103.805 14.6016C103.714 14.7839 103.668 15.1289 103.668 15.6367V16.8379C103.668 17.3132 103.72 17.6419 103.824 17.8242C103.928 18.0065 104.104 18.0977 104.352 18.0977C104.612 18.0977 104.788 18.0098 104.879 17.834C104.97 17.6517 105.016 17.2806 105.016 16.7207V15.6367ZM105.094 22.209C105.094 21.6035 105.032 21.2031 104.908 21.0078C104.785 20.806 104.589 20.7051 104.322 20.7051C104.062 20.7051 103.873 20.8027 103.756 20.998C103.645 21.1868 103.59 21.5905 103.59 22.209V24.2598C103.59 24.9434 103.652 25.3828 103.775 25.5781C103.906 25.7734 104.107 25.8711 104.381 25.8711C104.661 25.8711 104.85 25.7734 104.947 25.5781C105.045 25.3763 105.094 24.9271 105.094 24.2305V22.209Z" fill="black"/>
<path d="M16.8398 18.3789L21.5469 50H13.1289L12.7188 44.3164H9.76953L9.28125 50H0.765625L4.94531 18.3789H16.8398ZM12.4844 38.7109C12.0677 35.1302 11.651 30.7096 11.2344 25.4492C10.401 31.4909 9.88021 35.9115 9.67188 38.7109H12.4844ZM40.1602 33.8672H32.7188V30.8789C32.7188 29.8372 32.6341 29.1341 32.4648 28.7695C32.2956 28.3919 31.9831 28.2031 31.5273 28.2031C31.0716 28.2031 30.7656 28.3659 30.6094 28.6914C30.4531 29.0169 30.375 29.7461 30.375 30.8789V43.1055C30.375 44.0299 30.4922 44.7266 30.7266 45.1953C30.9609 45.651 31.306 45.8789 31.7617 45.8789C32.2956 45.8789 32.6536 45.638 32.8359 45.1562C33.0312 44.6745 33.1289 43.763 33.1289 42.4219V39.3359H40.1602C40.1471 41.4062 40.069 42.9622 39.9258 44.0039C39.7956 45.0326 39.3594 46.0938 38.6172 47.1875C37.888 48.2682 36.931 49.0885 35.7461 49.6484C34.5612 50.1953 33.0964 50.4688 31.3516 50.4688C29.125 50.4688 27.3607 50.0911 26.0586 49.3359C24.7565 48.5677 23.832 47.5 23.2852 46.1328C22.7513 44.7526 22.4844 42.7995 22.4844 40.2734V32.9102C22.4844 30.7096 22.7057 29.0495 23.1484 27.9297C23.5911 26.8099 24.5352 25.8138 25.9805 24.9414C27.4258 24.056 29.1836 23.6133 31.2539 23.6133C33.3112 23.6133 35.069 24.0495 36.5273 24.9219C37.9857 25.7943 38.9557 26.8945 39.4375 28.2227C39.9193 29.5508 40.1602 31.4323 40.1602 33.8672ZM50.8438 20.625V24.707H52.9727V28.8086H50.8438V42.6758C50.8438 44.3815 50.9284 45.332 51.0977 45.5273C51.2799 45.7227 52.0156 45.8203 53.3047 45.8203V50H50.1211C48.3242 50 47.0417 49.9284 46.2734 49.7852C45.5052 49.6289 44.8281 49.2839 44.2422 48.75C43.6562 48.2031 43.2917 47.5846 43.1484 46.8945C43.0052 46.1914 42.9336 44.5508 42.9336 41.9727V28.8086H41.2344V24.707H42.9336V20.625H50.8438ZM62.8359 18.3789V22.5H54.7109V18.3789H62.8359ZM62.8359 24.082V50H54.7109V24.082H62.8359ZM81.9961 24.082L78.3047 50H68.0117L64.0469 24.082H71.0977L73.3047 42.9883C73.474 41.6081 73.7604 38.2227 74.1641 32.832C74.3984 29.8242 74.6589 26.9076 74.9453 24.082H81.9961Z" fill="black"/>
</svg>
