<svg width="762" height="434" viewBox="0 0 762 434" fill="none" xmlns="http://www.w3.org/2000/svg">
<g filter="url(#filter0_b_105_716)">
<rect x="62" y="25" width="700" height="408.333" rx="20" fill="white" fill-opacity="0.75"/>
</g>
<g filter="url(#filter1_b_105_716)">
<rect width="700" height="408.333" rx="20" fill="white"/>
</g>
<path d="M185.643 192L178.254 165.818H183.355L188.072 185.058H188.315L193.352 165.818H197.993L203.042 185.071H203.272L207.99 165.818H213.091L205.701 192H201.022L195.781 173.629H195.576L190.322 192H185.643ZM220.803 180.494V192H216.175V165.818H220.7V175.7H220.93C221.391 174.592 222.102 173.719 223.065 173.08C224.037 172.432 225.273 172.108 226.773 172.108C228.136 172.108 229.325 172.393 230.339 172.964C231.354 173.536 232.138 174.371 232.692 175.47C233.254 176.57 233.536 177.912 233.536 179.497V192H228.908V180.213C228.908 178.892 228.567 177.865 227.885 177.132C227.212 176.391 226.266 176.02 225.047 176.02C224.229 176.02 223.496 176.199 222.848 176.557C222.209 176.906 221.706 177.413 221.339 178.078C220.982 178.743 220.803 179.548 220.803 180.494ZM243.903 192.396C242.659 192.396 241.538 192.175 240.541 191.732C239.553 191.28 238.768 190.615 238.189 189.737C237.618 188.859 237.332 187.777 237.332 186.49C237.332 185.382 237.537 184.466 237.946 183.741C238.355 183.017 238.913 182.438 239.621 182.003C240.328 181.568 241.125 181.24 242.011 181.018C242.906 180.788 243.831 180.622 244.786 180.52C245.936 180.401 246.869 180.294 247.585 180.2C248.301 180.098 248.821 179.945 249.145 179.74C249.477 179.527 249.643 179.199 249.643 178.756V178.679C249.643 177.716 249.358 176.97 248.787 176.442C248.216 175.913 247.393 175.649 246.32 175.649C245.186 175.649 244.287 175.896 243.622 176.391C242.966 176.885 242.523 177.469 242.293 178.142L237.972 177.528C238.313 176.335 238.875 175.338 239.659 174.537C240.443 173.727 241.402 173.122 242.536 172.722C243.669 172.312 244.922 172.108 246.294 172.108C247.24 172.108 248.182 172.219 249.119 172.44C250.057 172.662 250.913 173.028 251.689 173.54C252.464 174.043 253.087 174.729 253.555 175.598C254.033 176.467 254.271 177.554 254.271 178.858V192H249.822V189.303H249.669C249.388 189.848 248.991 190.359 248.48 190.837C247.977 191.305 247.342 191.685 246.575 191.974C245.817 192.256 244.926 192.396 243.903 192.396ZM245.105 188.996C246.034 188.996 246.839 188.812 247.521 188.446C248.203 188.071 248.727 187.577 249.094 186.963C249.469 186.349 249.656 185.68 249.656 184.956V182.642C249.511 182.761 249.264 182.872 248.915 182.974C248.574 183.077 248.19 183.166 247.764 183.243C247.338 183.32 246.916 183.388 246.499 183.447C246.081 183.507 245.719 183.558 245.412 183.601C244.722 183.695 244.104 183.848 243.558 184.061C243.013 184.274 242.582 184.572 242.267 184.956C241.952 185.331 241.794 185.817 241.794 186.413C241.794 187.266 242.105 187.909 242.727 188.344C243.349 188.778 244.142 188.996 245.105 188.996ZM268.73 172.364V175.943H257.442V172.364H268.73ZM260.229 167.659H264.857V186.094C264.857 186.716 264.95 187.193 265.138 187.526C265.334 187.849 265.589 188.071 265.905 188.19C266.22 188.31 266.57 188.369 266.953 188.369C267.243 188.369 267.507 188.348 267.746 188.305C267.993 188.263 268.18 188.224 268.308 188.19L269.088 191.808C268.841 191.893 268.487 191.987 268.027 192.089C267.575 192.192 267.021 192.251 266.365 192.268C265.206 192.303 264.162 192.128 263.233 191.744C262.304 191.352 261.567 190.747 261.021 189.929C260.484 189.111 260.22 188.088 260.229 186.861V167.659ZM288.817 192.345C287.275 192.345 285.894 191.949 284.675 191.156C283.456 190.364 282.493 189.213 281.786 187.705C281.078 186.196 280.725 184.364 280.725 182.207C280.725 180.026 281.083 178.185 281.799 176.685C282.523 175.176 283.499 174.038 284.726 173.271C285.953 172.496 287.321 172.108 288.83 172.108C289.98 172.108 290.926 172.304 291.668 172.696C292.409 173.08 292.998 173.544 293.432 174.089C293.867 174.626 294.203 175.134 294.442 175.611H294.634V165.818H299.275V192H294.723V188.906H294.442C294.203 189.384 293.858 189.891 293.407 190.428C292.955 190.956 292.358 191.408 291.617 191.783C290.875 192.158 289.942 192.345 288.817 192.345ZM290.108 188.548C291.088 188.548 291.924 188.284 292.614 187.756C293.304 187.219 293.828 186.473 294.186 185.518C294.544 184.564 294.723 183.452 294.723 182.182C294.723 180.912 294.544 179.808 294.186 178.871C293.837 177.933 293.317 177.205 292.627 176.685C291.945 176.165 291.105 175.905 290.108 175.905C289.077 175.905 288.216 176.173 287.526 176.71C286.836 177.247 286.316 177.989 285.966 178.935C285.617 179.881 285.442 180.963 285.442 182.182C285.442 183.409 285.617 184.504 285.966 185.467C286.324 186.422 286.848 187.176 287.539 187.73C288.238 188.276 289.094 188.548 290.108 188.548ZM312.771 192.384C310.854 192.384 309.192 191.962 307.786 191.118C306.379 190.274 305.288 189.094 304.513 187.577C303.746 186.06 303.362 184.287 303.362 182.259C303.362 180.23 303.746 178.453 304.513 176.928C305.288 175.402 306.379 174.217 307.786 173.374C309.192 172.53 310.854 172.108 312.771 172.108C314.689 172.108 316.351 172.53 317.757 173.374C319.163 174.217 320.25 175.402 321.017 176.928C321.793 178.453 322.18 180.23 322.18 182.259C322.18 184.287 321.793 186.06 321.017 187.577C320.25 189.094 319.163 190.274 317.757 191.118C316.351 191.962 314.689 192.384 312.771 192.384ZM312.797 188.676C313.837 188.676 314.706 188.391 315.405 187.82C316.104 187.24 316.624 186.464 316.964 185.493C317.314 184.521 317.489 183.439 317.489 182.246C317.489 181.044 317.314 179.957 316.964 178.986C316.624 178.006 316.104 177.226 315.405 176.646C314.706 176.067 313.837 175.777 312.797 175.777C311.732 175.777 310.845 176.067 310.138 176.646C309.439 177.226 308.915 178.006 308.565 178.986C308.224 179.957 308.054 181.044 308.054 182.246C308.054 183.439 308.224 184.521 308.565 185.493C308.915 186.464 309.439 187.24 310.138 187.82C310.845 188.391 311.732 188.676 312.797 188.676ZM334.801 192.384C332.833 192.384 331.132 191.974 329.701 191.156C328.277 190.33 327.182 189.162 326.415 187.653C325.648 186.136 325.265 184.351 325.265 182.297C325.265 180.277 325.648 178.504 326.415 176.979C327.191 175.445 328.273 174.251 329.662 173.399C331.051 172.538 332.684 172.108 334.559 172.108C335.769 172.108 336.911 172.304 337.985 172.696C339.067 173.08 340.022 173.676 340.848 174.486C341.684 175.295 342.34 176.327 342.817 177.58C343.294 178.824 343.533 180.307 343.533 182.028V183.447H327.438V180.328H339.097C339.088 179.442 338.897 178.653 338.522 177.963C338.147 177.264 337.623 176.714 336.949 176.314C336.284 175.913 335.509 175.713 334.623 175.713C333.676 175.713 332.846 175.943 332.13 176.403C331.414 176.855 330.855 177.452 330.455 178.193C330.063 178.926 329.863 179.732 329.854 180.609V183.332C329.854 184.474 330.063 185.455 330.48 186.273C330.898 187.082 331.482 187.705 332.232 188.139C332.982 188.565 333.86 188.778 334.865 188.778C335.539 188.778 336.148 188.685 336.694 188.497C337.239 188.301 337.712 188.016 338.113 187.641C338.513 187.266 338.816 186.801 339.02 186.247L343.341 186.733C343.069 187.875 342.549 188.872 341.782 189.724C341.023 190.568 340.051 191.224 338.867 191.693C337.682 192.153 336.327 192.384 334.801 192.384ZM362.968 177.554L358.749 178.014C358.63 177.588 358.421 177.188 358.123 176.812C357.833 176.438 357.441 176.135 356.947 175.905C356.452 175.675 355.847 175.56 355.131 175.56C354.168 175.56 353.359 175.768 352.702 176.186C352.055 176.604 351.735 177.145 351.744 177.81C351.735 178.381 351.944 178.845 352.37 179.203C352.805 179.561 353.521 179.855 354.518 180.085L357.867 180.801C359.725 181.202 361.106 181.837 362.009 182.706C362.921 183.575 363.381 184.713 363.39 186.119C363.381 187.355 363.019 188.446 362.303 189.392C361.596 190.33 360.612 191.062 359.35 191.591C358.089 192.119 356.64 192.384 355.004 192.384C352.6 192.384 350.665 191.881 349.2 190.875C347.734 189.861 346.86 188.45 346.579 186.643L351.092 186.209C351.296 187.095 351.731 187.764 352.396 188.216C353.06 188.668 353.925 188.893 354.991 188.893C356.09 188.893 356.972 188.668 357.637 188.216C358.31 187.764 358.647 187.206 358.647 186.541C358.647 185.979 358.43 185.514 357.995 185.148C357.569 184.781 356.904 184.5 356.001 184.304L352.651 183.601C350.768 183.209 349.374 182.548 348.471 181.619C347.567 180.682 347.12 179.497 347.129 178.065C347.12 176.855 347.448 175.807 348.113 174.92C348.786 174.026 349.719 173.335 350.913 172.849C352.114 172.355 353.499 172.108 355.067 172.108C357.369 172.108 359.18 172.598 360.501 173.578C361.83 174.558 362.653 175.884 362.968 177.554ZM385.212 192H376.34V165.818H385.391C387.991 165.818 390.224 166.342 392.09 167.391C393.965 168.43 395.406 169.926 396.411 171.878C397.417 173.83 397.92 176.165 397.92 178.884C397.92 181.611 397.413 183.955 396.398 185.915C395.393 187.875 393.94 189.379 392.039 190.428C390.147 191.476 387.871 192 385.212 192ZM381.083 187.896H384.982C386.806 187.896 388.327 187.564 389.546 186.899C390.765 186.226 391.681 185.224 392.295 183.895C392.908 182.557 393.215 180.886 393.215 178.884C393.215 176.881 392.908 175.219 392.295 173.898C391.681 172.568 390.773 171.575 389.572 170.919C388.379 170.254 386.896 169.922 385.123 169.922H381.083V187.896ZM407.872 192.396C406.628 192.396 405.507 192.175 404.51 191.732C403.521 191.28 402.737 190.615 402.158 189.737C401.587 188.859 401.301 187.777 401.301 186.49C401.301 185.382 401.506 184.466 401.915 183.741C402.324 183.017 402.882 182.438 403.589 182.003C404.297 181.568 405.094 181.24 405.98 181.018C406.875 180.788 407.8 180.622 408.754 180.52C409.905 180.401 410.838 180.294 411.554 180.2C412.27 180.098 412.79 179.945 413.114 179.74C413.446 179.527 413.612 179.199 413.612 178.756V178.679C413.612 177.716 413.327 176.97 412.756 176.442C412.185 175.913 411.362 175.649 410.288 175.649C409.155 175.649 408.256 175.896 407.591 176.391C406.935 176.885 406.491 177.469 406.261 178.142L401.94 177.528C402.281 176.335 402.844 175.338 403.628 174.537C404.412 173.727 405.371 173.122 406.504 172.722C407.638 172.312 408.891 172.108 410.263 172.108C411.209 172.108 412.151 172.219 413.088 172.44C414.026 172.662 414.882 173.028 415.658 173.54C416.433 174.043 417.055 174.729 417.524 175.598C418.001 176.467 418.24 177.554 418.24 178.858V192H413.791V189.303H413.638C413.357 189.848 412.96 190.359 412.449 190.837C411.946 191.305 411.311 191.685 410.544 191.974C409.786 192.256 408.895 192.396 407.872 192.396ZM409.074 188.996C410.003 188.996 410.808 188.812 411.49 188.446C412.172 188.071 412.696 187.577 413.062 186.963C413.438 186.349 413.625 185.68 413.625 184.956V182.642C413.48 182.761 413.233 182.872 412.884 182.974C412.543 183.077 412.159 183.166 411.733 183.243C411.307 183.32 410.885 183.388 410.467 183.447C410.05 183.507 409.688 183.558 409.381 183.601C408.69 183.695 408.072 183.848 407.527 184.061C406.982 184.274 406.551 184.572 406.236 184.956C405.92 185.331 405.763 185.817 405.763 186.413C405.763 187.266 406.074 187.909 406.696 188.344C407.318 188.778 408.111 188.996 409.074 188.996ZM422.893 192V172.364H427.381V175.636H427.585C427.943 174.503 428.557 173.629 429.426 173.016C430.304 172.393 431.305 172.082 432.43 172.082C432.686 172.082 432.972 172.095 433.287 172.121C433.611 172.138 433.879 172.168 434.092 172.21V176.467C433.896 176.399 433.585 176.339 433.159 176.288C432.741 176.229 432.337 176.199 431.945 176.199C431.101 176.199 430.342 176.382 429.669 176.749C429.004 177.107 428.48 177.605 428.097 178.244C427.713 178.884 427.521 179.621 427.521 180.456V192H422.893ZM441.536 192L435.988 172.364H440.705L444.157 186.17H444.336L447.864 172.364H452.53L456.059 186.094H456.25L459.651 172.364H464.381L458.82 192H454L450.319 178.73H450.05L446.368 192H441.536ZM467.612 192V172.364H472.24V192H467.612ZM469.939 169.577C469.206 169.577 468.575 169.334 468.047 168.848C467.518 168.354 467.254 167.761 467.254 167.071C467.254 166.372 467.518 165.78 468.047 165.294C468.575 164.8 469.206 164.553 469.939 164.553C470.68 164.553 471.311 164.8 471.831 165.294C472.359 165.78 472.624 166.372 472.624 167.071C472.624 167.761 472.359 168.354 471.831 168.848C471.311 169.334 470.68 169.577 469.939 169.577ZM481.627 180.494V192H476.999V172.364H481.422V175.7H481.652C482.104 174.601 482.824 173.727 483.813 173.08C484.81 172.432 486.042 172.108 487.507 172.108C488.863 172.108 490.043 172.398 491.049 172.977C492.063 173.557 492.847 174.396 493.401 175.496C493.963 176.595 494.24 177.929 494.232 179.497V192H489.604V180.213C489.604 178.901 489.263 177.874 488.581 177.132C487.908 176.391 486.975 176.02 485.782 176.02C484.972 176.02 484.252 176.199 483.621 176.557C482.999 176.906 482.509 177.413 482.151 178.078C481.801 178.743 481.627 179.548 481.627 180.494ZM502.861 165.818V168.426C502.861 169.176 502.716 169.956 502.426 170.766C502.145 171.567 501.757 172.334 501.263 173.067C500.769 173.791 500.206 174.413 499.576 174.933L497.428 173.54C497.897 172.832 498.306 172.07 498.655 171.251C499.005 170.425 499.179 169.491 499.179 168.452V165.818H502.861ZM519.589 177.554L515.37 178.014C515.251 177.588 515.042 177.188 514.744 176.812C514.454 176.438 514.062 176.135 513.568 175.905C513.074 175.675 512.468 175.56 511.752 175.56C510.789 175.56 509.98 175.768 509.324 176.186C508.676 176.604 508.356 177.145 508.365 177.81C508.356 178.381 508.565 178.845 508.991 179.203C509.426 179.561 510.142 179.855 511.139 180.085L514.488 180.801C516.346 181.202 517.727 181.837 518.63 182.706C519.542 183.575 520.002 184.713 520.011 186.119C520.002 187.355 519.64 188.446 518.924 189.392C518.217 190.33 517.233 191.062 515.971 191.591C514.71 192.119 513.261 192.384 511.625 192.384C509.221 192.384 507.287 191.881 505.821 190.875C504.355 189.861 503.481 188.45 503.2 186.643L507.713 186.209C507.917 187.095 508.352 187.764 509.017 188.216C509.681 188.668 510.547 188.893 511.612 188.893C512.711 188.893 513.593 188.668 514.258 188.216C514.931 187.764 515.268 187.206 515.268 186.541C515.268 185.979 515.051 185.514 514.616 185.148C514.19 184.781 513.525 184.5 512.622 184.304L509.272 183.601C507.389 183.209 505.995 182.548 505.092 181.619C504.189 180.682 503.741 179.497 503.75 178.065C503.741 176.855 504.069 175.807 504.734 174.92C505.407 174.026 506.341 173.335 507.534 172.849C508.735 172.355 510.12 172.108 511.689 172.108C513.99 172.108 515.801 172.598 517.122 173.578C518.451 174.558 519.274 175.884 519.589 177.554ZM157.95 236V209.818H174.978V213.794H162.692V220.902H174.096V224.878H162.692V232.024H175.08V236H157.95ZM197.152 216.364L190.159 236H185.045L178.053 216.364H182.987L187.5 230.95H187.705L192.23 216.364H197.152ZM208.252 236.384C206.334 236.384 204.672 235.962 203.266 235.118C201.86 234.274 200.769 233.094 199.993 231.577C199.226 230.06 198.843 228.287 198.843 226.259C198.843 224.23 199.226 222.453 199.993 220.928C200.769 219.402 201.86 218.217 203.266 217.374C204.672 216.53 206.334 216.108 208.252 216.108C210.169 216.108 211.831 216.53 213.238 217.374C214.644 218.217 215.73 219.402 216.498 220.928C217.273 222.453 217.661 224.23 217.661 226.259C217.661 228.287 217.273 230.06 216.498 231.577C215.73 233.094 214.644 234.274 213.238 235.118C211.831 235.962 210.169 236.384 208.252 236.384ZM208.277 232.676C209.317 232.676 210.186 232.391 210.885 231.82C211.584 231.24 212.104 230.464 212.445 229.493C212.794 228.521 212.969 227.439 212.969 226.246C212.969 225.044 212.794 223.957 212.445 222.986C212.104 222.006 211.584 221.226 210.885 220.646C210.186 220.067 209.317 219.777 208.277 219.777C207.212 219.777 206.326 220.067 205.618 220.646C204.919 221.226 204.395 222.006 204.046 222.986C203.705 223.957 203.534 225.044 203.534 226.246C203.534 227.439 203.705 228.521 204.046 229.493C204.395 230.464 204.919 231.24 205.618 231.82C206.326 232.391 207.212 232.676 208.277 232.676ZM226.217 209.818V236H221.589V209.818H226.217ZM243.491 227.741V216.364H248.119V236H243.632V232.51H243.427C242.984 233.609 242.255 234.509 241.241 235.207C240.235 235.906 238.995 236.256 237.521 236.256C236.234 236.256 235.096 235.97 234.108 235.399C233.127 234.82 232.36 233.98 231.806 232.881C231.252 231.773 230.975 230.435 230.975 228.866V216.364H235.603V228.151C235.603 229.395 235.944 230.384 236.626 231.116C237.308 231.849 238.203 232.216 239.311 232.216C239.993 232.216 240.653 232.05 241.292 231.717C241.931 231.385 242.456 230.891 242.865 230.234C243.282 229.57 243.491 228.739 243.491 227.741ZM262.683 216.364V219.943H251.395V216.364H262.683ZM254.182 211.659H258.81V230.094C258.81 230.716 258.903 231.193 259.091 231.526C259.287 231.849 259.543 232.071 259.858 232.19C260.173 232.31 260.523 232.369 260.906 232.369C261.196 232.369 261.46 232.348 261.699 232.305C261.946 232.263 262.134 232.224 262.261 232.19L263.041 235.808C262.794 235.893 262.44 235.987 261.98 236.089C261.528 236.192 260.974 236.251 260.318 236.268C259.159 236.303 258.115 236.128 257.186 235.744C256.257 235.352 255.52 234.747 254.974 233.929C254.438 233.111 254.173 232.088 254.182 230.861V211.659ZM266.554 236V216.364H271.181V236H266.554ZM268.88 213.577C268.147 213.577 267.517 213.334 266.988 212.848C266.46 212.354 266.196 211.761 266.196 211.071C266.196 210.372 266.46 209.78 266.988 209.294C267.517 208.8 268.147 208.553 268.88 208.553C269.622 208.553 270.252 208.8 270.772 209.294C271.301 209.78 271.565 210.372 271.565 211.071C271.565 211.761 271.301 212.354 270.772 212.848C270.252 213.334 269.622 213.577 268.88 213.577ZM284.506 236.384C282.588 236.384 280.926 235.962 279.52 235.118C278.114 234.274 277.023 233.094 276.247 231.577C275.48 230.06 275.097 228.287 275.097 226.259C275.097 224.23 275.48 222.453 276.247 220.928C277.023 219.402 278.114 218.217 279.52 217.374C280.926 216.53 282.588 216.108 284.506 216.108C286.423 216.108 288.085 216.53 289.491 217.374C290.898 218.217 291.984 219.402 292.751 220.928C293.527 222.453 293.915 224.23 293.915 226.259C293.915 228.287 293.527 230.06 292.751 231.577C291.984 233.094 290.898 234.274 289.491 235.118C288.085 235.962 286.423 236.384 284.506 236.384ZM284.531 232.676C285.571 232.676 286.44 232.391 287.139 231.82C287.838 231.24 288.358 230.464 288.699 229.493C289.048 228.521 289.223 227.439 289.223 226.246C289.223 225.044 289.048 223.957 288.699 222.986C288.358 222.006 287.838 221.226 287.139 220.646C286.44 220.067 285.571 219.777 284.531 219.777C283.466 219.777 282.58 220.067 281.872 220.646C281.173 221.226 280.649 222.006 280.3 222.986C279.959 223.957 279.788 225.044 279.788 226.246C279.788 227.439 279.959 228.521 280.3 229.493C280.649 230.464 281.173 231.24 281.872 231.82C282.58 232.391 283.466 232.676 284.531 232.676ZM302.471 224.494V236H297.843V216.364H302.266V219.7H302.496C302.948 218.601 303.668 217.727 304.657 217.08C305.654 216.432 306.885 216.108 308.351 216.108C309.706 216.108 310.887 216.398 311.892 216.977C312.907 217.557 313.691 218.396 314.245 219.496C314.807 220.595 315.084 221.929 315.076 223.497V236H310.448V224.213C310.448 222.901 310.107 221.874 309.425 221.132C308.752 220.391 307.819 220.02 306.625 220.02C305.816 220.02 305.096 220.199 304.465 220.557C303.843 220.906 303.353 221.413 302.995 222.078C302.645 222.743 302.471 223.548 302.471 224.494ZM327.764 213.794V209.818H348.653V213.794H340.561V236H335.856V213.794H327.764ZM357.103 224.494V236H352.475V209.818H357.001V219.7H357.231C357.691 218.592 358.403 217.719 359.366 217.08C360.338 216.432 361.574 216.108 363.074 216.108C364.437 216.108 365.626 216.393 366.64 216.964C367.654 217.536 368.439 218.371 368.993 219.47C369.555 220.57 369.836 221.912 369.836 223.497V236H365.208V224.213C365.208 222.892 364.868 221.865 364.186 221.132C363.512 220.391 362.566 220.02 361.348 220.02C360.529 220.02 359.797 220.199 359.149 220.557C358.51 220.906 358.007 221.413 357.64 222.078C357.282 222.743 357.103 223.548 357.103 224.494ZM383.247 236.384C381.278 236.384 379.578 235.974 378.146 235.156C376.723 234.33 375.627 233.162 374.86 231.653C374.093 230.136 373.71 228.351 373.71 226.297C373.71 224.277 374.093 222.504 374.86 220.979C375.636 219.445 376.718 218.251 378.108 217.399C379.497 216.538 381.129 216.108 383.004 216.108C384.214 216.108 385.356 216.304 386.43 216.696C387.512 217.08 388.467 217.676 389.294 218.486C390.129 219.295 390.785 220.327 391.262 221.58C391.74 222.824 391.978 224.307 391.978 226.028V227.447H375.883V224.328H387.542C387.534 223.442 387.342 222.653 386.967 221.963C386.592 221.264 386.068 220.714 385.395 220.314C384.73 219.913 383.954 219.713 383.068 219.713C382.122 219.713 381.291 219.943 380.575 220.403C379.859 220.855 379.301 221.452 378.9 222.193C378.508 222.926 378.308 223.732 378.299 224.609V227.332C378.299 228.474 378.508 229.455 378.926 230.273C379.343 231.082 379.927 231.705 380.677 232.139C381.427 232.565 382.305 232.778 383.311 232.778C383.984 232.778 384.593 232.685 385.139 232.497C385.684 232.301 386.157 232.016 386.558 231.641C386.958 231.266 387.261 230.801 387.466 230.247L391.787 230.733C391.514 231.875 390.994 232.872 390.227 233.724C389.468 234.568 388.497 235.224 387.312 235.693C386.127 236.153 384.772 236.384 383.247 236.384ZM404.459 236.384C402.541 236.384 400.879 235.962 399.473 235.118C398.067 234.274 396.976 233.094 396.2 231.577C395.433 230.06 395.05 228.287 395.05 226.259C395.05 224.23 395.433 222.453 396.2 220.928C396.976 219.402 398.067 218.217 399.473 217.374C400.879 216.53 402.541 216.108 404.459 216.108C406.376 216.108 408.038 216.53 409.445 217.374C410.851 218.217 411.938 219.402 412.705 220.928C413.48 222.453 413.868 224.23 413.868 226.259C413.868 228.287 413.48 230.06 412.705 231.577C411.938 233.094 410.851 234.274 409.445 235.118C408.038 235.962 406.376 236.384 404.459 236.384ZM404.484 232.676C405.524 232.676 406.393 232.391 407.092 231.82C407.791 231.24 408.311 230.464 408.652 229.493C409.001 228.521 409.176 227.439 409.176 226.246C409.176 225.044 409.001 223.957 408.652 222.986C408.311 222.006 407.791 221.226 407.092 220.646C406.393 220.067 405.524 219.777 404.484 219.777C403.419 219.777 402.533 220.067 401.825 220.646C401.126 221.226 400.602 222.006 400.253 222.986C399.912 223.957 399.741 225.044 399.741 226.246C399.741 227.439 399.912 228.521 400.253 229.493C400.602 230.464 401.126 231.24 401.825 231.82C402.533 232.391 403.419 232.676 404.484 232.676ZM417.796 236V216.364H422.283V219.636H422.488C422.846 218.503 423.459 217.629 424.328 217.016C425.206 216.393 426.208 216.082 427.333 216.082C427.588 216.082 427.874 216.095 428.189 216.121C428.513 216.138 428.782 216.168 428.995 216.21V220.467C428.799 220.399 428.488 220.339 428.061 220.288C427.644 220.229 427.239 220.199 426.847 220.199C426.003 220.199 425.245 220.382 424.571 220.749C423.907 221.107 423.382 221.605 422.999 222.244C422.615 222.884 422.424 223.621 422.424 224.456V236H417.796ZM435.543 243.364C434.913 243.364 434.329 243.313 433.792 243.21C433.263 243.116 432.842 243.006 432.526 242.878L433.6 239.273C434.273 239.469 434.874 239.563 435.403 239.554C435.931 239.545 436.396 239.379 436.796 239.055C437.205 238.74 437.55 238.212 437.832 237.47L438.228 236.409L431.107 216.364H436.016L440.542 231.193H440.746L445.285 216.364H450.207L442.344 238.378C441.978 239.418 441.492 240.308 440.887 241.05C440.282 241.8 439.54 242.371 438.663 242.763C437.793 243.163 436.754 243.364 435.543 243.364ZM476.772 217.016C476.653 215.899 476.15 215.03 475.263 214.408C474.386 213.786 473.244 213.474 471.837 213.474C470.849 213.474 470.001 213.624 469.293 213.922C468.586 214.22 468.045 214.625 467.67 215.136C467.295 215.648 467.103 216.232 467.094 216.888C467.094 217.433 467.218 217.906 467.465 218.307C467.721 218.707 468.066 219.048 468.501 219.33C468.935 219.602 469.417 219.832 469.945 220.02C470.474 220.207 471.006 220.365 471.543 220.493L473.998 221.107C474.987 221.337 475.937 221.648 476.849 222.04C477.769 222.432 478.592 222.926 479.316 223.523C480.049 224.119 480.629 224.839 481.055 225.683C481.481 226.527 481.694 227.516 481.694 228.649C481.694 230.183 481.302 231.534 480.518 232.702C479.734 233.861 478.6 234.768 477.117 235.425C475.643 236.072 473.857 236.396 471.761 236.396C469.724 236.396 467.955 236.081 466.455 235.45C464.964 234.82 463.796 233.899 462.952 232.689C462.117 231.479 461.665 230.004 461.597 228.266H466.263C466.332 229.178 466.613 229.936 467.107 230.541C467.602 231.146 468.245 231.598 469.038 231.896C469.839 232.195 470.734 232.344 471.722 232.344C472.754 232.344 473.657 232.19 474.433 231.884C475.217 231.568 475.83 231.134 476.273 230.58C476.717 230.017 476.942 229.361 476.951 228.611C476.942 227.929 476.742 227.366 476.35 226.923C475.958 226.472 475.408 226.097 474.701 225.798C474.002 225.491 473.184 225.219 472.246 224.98L469.268 224.213C467.112 223.659 465.407 222.82 464.154 221.695C462.91 220.561 462.288 219.057 462.288 217.182C462.288 215.639 462.705 214.288 463.54 213.129C464.384 211.97 465.531 211.071 466.979 210.432C468.428 209.784 470.069 209.46 471.901 209.46C473.759 209.46 475.387 209.784 476.785 210.432C478.191 211.071 479.295 211.962 480.096 213.104C480.897 214.237 481.31 215.541 481.336 217.016H476.772ZM491.368 236.396C490.124 236.396 489.003 236.175 488.006 235.732C487.017 235.28 486.233 234.615 485.654 233.737C485.083 232.859 484.797 231.777 484.797 230.49C484.797 229.382 485.002 228.466 485.411 227.741C485.82 227.017 486.378 226.438 487.086 226.003C487.793 225.568 488.59 225.24 489.476 225.018C490.371 224.788 491.296 224.622 492.25 224.52C493.401 224.401 494.334 224.294 495.05 224.2C495.766 224.098 496.286 223.945 496.61 223.74C496.942 223.527 497.108 223.199 497.108 222.756V222.679C497.108 221.716 496.823 220.97 496.252 220.442C495.681 219.913 494.858 219.649 493.784 219.649C492.651 219.649 491.752 219.896 491.087 220.391C490.431 220.885 489.988 221.469 489.757 222.142L485.436 221.528C485.777 220.335 486.34 219.338 487.124 218.537C487.908 217.727 488.867 217.122 490 216.722C491.134 216.312 492.387 216.108 493.759 216.108C494.705 216.108 495.647 216.219 496.584 216.44C497.522 216.662 498.378 217.028 499.154 217.54C499.929 218.043 500.551 218.729 501.02 219.598C501.498 220.467 501.736 221.554 501.736 222.858V236H497.287V233.303H497.134C496.853 233.848 496.456 234.359 495.945 234.837C495.442 235.305 494.807 235.685 494.04 235.974C493.282 236.256 492.391 236.396 491.368 236.396ZM492.57 232.996C493.499 232.996 494.304 232.812 494.986 232.446C495.668 232.071 496.192 231.577 496.559 230.963C496.934 230.349 497.121 229.68 497.121 228.956V226.642C496.976 226.761 496.729 226.872 496.38 226.974C496.039 227.077 495.655 227.166 495.229 227.243C494.803 227.32 494.381 227.388 493.963 227.447C493.546 227.507 493.184 227.558 492.877 227.601C492.186 227.695 491.569 227.848 491.023 228.061C490.478 228.274 490.047 228.572 489.732 228.956C489.417 229.331 489.259 229.817 489.259 230.413C489.259 231.266 489.57 231.909 490.192 232.344C490.814 232.778 491.607 232.996 492.57 232.996ZM508.563 243.364C507.932 243.364 507.348 243.313 506.811 243.21C506.283 243.116 505.861 243.006 505.546 242.878L506.62 239.273C507.293 239.469 507.894 239.563 508.422 239.554C508.951 239.545 509.415 239.379 509.816 239.055C510.225 238.74 510.57 238.212 510.851 237.47L511.248 236.409L504.127 216.364H509.036L513.561 231.193H513.766L518.304 216.364H523.226L515.364 238.378C514.998 239.418 514.512 240.308 513.907 241.05C513.301 241.8 512.56 242.371 511.682 242.763C510.813 243.163 509.773 243.364 508.563 243.364ZM530.852 228.304V227.972C530.86 226.429 531.005 225.202 531.287 224.29C531.576 223.378 531.985 222.645 532.514 222.091C533.042 221.528 533.686 221.013 534.444 220.544C534.964 220.22 535.429 219.866 535.838 219.483C536.255 219.091 536.583 218.656 536.822 218.179C537.061 217.693 537.18 217.152 537.18 216.555C537.18 215.882 537.022 215.298 536.707 214.804C536.392 214.31 535.966 213.926 535.429 213.653C534.9 213.381 534.308 213.244 533.652 213.244C533.047 213.244 532.471 213.376 531.926 213.641C531.389 213.896 530.941 214.288 530.583 214.817C530.234 215.337 530.038 215.997 529.995 216.798H525.444C525.487 215.179 525.879 213.824 526.62 212.733C527.37 211.642 528.359 210.824 529.586 210.278C530.822 209.733 532.186 209.46 533.677 209.46C535.305 209.46 536.737 209.746 537.973 210.317C539.217 210.888 540.184 211.702 540.875 212.759C541.574 213.807 541.923 215.051 541.923 216.491C541.923 217.463 541.765 218.332 541.45 219.099C541.143 219.866 540.704 220.548 540.133 221.145C539.562 221.741 538.885 222.274 538.1 222.743C537.41 223.169 536.843 223.612 536.4 224.072C535.966 224.533 535.642 225.074 535.429 225.696C535.224 226.31 535.118 227.068 535.109 227.972V228.304H530.852ZM533.076 236.281C532.309 236.281 531.649 236.009 531.095 235.463C530.541 234.918 530.264 234.253 530.264 233.469C530.264 232.702 530.541 232.045 531.095 231.5C531.649 230.955 532.309 230.682 533.076 230.682C533.835 230.682 534.491 230.955 535.045 231.5C535.608 232.045 535.889 232.702 535.889 233.469C535.889 233.989 535.757 234.462 535.493 234.888C535.237 235.314 534.896 235.655 534.47 235.911C534.052 236.158 533.588 236.281 533.076 236.281Z" fill="black" fill-opacity="0.69"/>
<defs>
<filter id="filter0_b_105_716" x="58" y="21" width="708" height="416.333" filterUnits="userSpaceOnUse" color-interpolation-filters="sRGB">
<feFlood flood-opacity="0" result="BackgroundImageFix"/>
<feGaussianBlur in="BackgroundImageFix" stdDeviation="2"/>
<feComposite in2="SourceAlpha" operator="in" result="effect1_backgroundBlur_105_716"/>
<feBlend mode="normal" in="SourceGraphic" in2="effect1_backgroundBlur_105_716" result="shape"/>
</filter>
<filter id="filter1_b_105_716" x="-4" y="-4" width="708" height="416.333" filterUnits="userSpaceOnUse" color-interpolation-filters="sRGB">
<feFlood flood-opacity="0" result="BackgroundImageFix"/>
<feGaussianBlur in="BackgroundImageFix" stdDeviation="2"/>
<feComposite in2="SourceAlpha" operator="in" result="effect1_backgroundBlur_105_716"/>
<feBlend mode="normal" in="SourceGraphic" in2="effect1_backgroundBlur_105_716" result="shape"/>
</filter>
</defs>
</svg>
